# xmcd CD database file
#
# Track frame offsets:
#	150
#	25846
#	56936
#	72013
#	92529
#	105831
#	127333
#	151973
#	170289
#
# Disc length: 2612 seconds
#
# Revision: 0
# Processed by: cddbd v1.4PL0 Copyright (c) Steve Scherf et al.
# Submitted via: CDex 1.50Beta7
#
DISCID=6d0a3209
DTITLE=The Notting Hillbillies - A Friendly Funny Night
DYEAR=1992
DGENRE=Country
TTITLE0=Set me free
TTITLE1=Water of love
TTITLE2=That' s allright mama
TTITLE3=Your own sweet way
TTITLE4=Run me down
TTITLE5=Hobo' s lullaby
TTITLE6=I think i love you too much
TTITLE7=Roll, roll, roll
TTITLE8=Fell like going home
EXTD=YEAR: 1992
EXTT0=
EXTT1=
EXTT2=
EXTT3=
EXTT4=
EXTT5=
EXTT6=
EXTT7=
EXTT8=
PLAYORDER=
